# xmcd
#
# Track frame offsets:
#	183
#	12438
#	22658
#	34398
#	45960
#	56688
#	65445
#	74163
#	84610
#	94180
#	104030
#	113850
#	124448
#	133680
#	144623
#	152640
#	164400
#	175140
#	184090
#	194783
#	203288
#	214263
#	222780
#	232578
#
# Disc length: 3215 seconds
#
# Revision: 2
# Processed by: cddbd v1.5.1PL2 Copyright (c) Steve Scherf et al.
# Submitted via: audiograbber 1.83.01
#
DISCID=600c8d18
DTITLE=Johnny Burnette - Hits and other favorites - Roses are red
DYEAR=1962
DGENRE=
TTITLE0=You're the reason
TTITLE1=Dreamin'
TTITLE2=Just out of reach
TTITLE3=Moody river
TTITLE4=Girl of my best friend
TTITLE5=You're sixteen
TTITLE6=Little boy sad
TTITLE7=Walk on by
TTITLE8=A little bit tear
TTITLE9=God, country and my baby
TTITLE10=Hello walls
TTITLE11=Big big world
TTITLE12=Girl
TTITLE13=Honestly I do
TTITLE14=Cho choo train
TTITLE15=Angry at the big oak tree
TTITLE16=When today is a long time ago
TTITLE17=The way I am
TTITLE18=Roses are red
TTITLE19=Lonesome waters
TTITLE20=Clown shoes
TTITLE21=The fool of the year
TTITLE22=The forest boy in town
TTITLE23=I've got a lot of things to do
EXTD=
EXTT0=
EXTT1=
EXTT2=
EXTT3=
EXTT4=
EXTT5=
EXTT6=
EXTT7=
EXTT8=
EXTT9=
EXTT10=
EXTT11=
EXTT12=
EXTT13=
EXTT14=
EXTT15=
EXTT16=
EXTT17=
EXTT18=
EXTT19=
EXTT20=
EXTT21=
EXTT22=
EXTT23=
PLAYORDER=
